# xmcd CD database file
# Copyright (C) 1995-1998 Ti Kan
#
# Track frame offsets:
# 150
# 18090
# 39795
# 62120
# 93770
#
# Disc length: 1628 seconds
#
# Revision: 1
# Processed by: cddbd v1.4b41PL1 Copyright (c) Steve Scherf et al.
# Submitted via: CDex 1.30
#
DISCID=2b065a05
DTITLE=Alive - Do You Really Want To Hurt Me
DYEAR=2000
DGENRE=Blues
TTITLE0=Radio Mix
TTITLE1=Extended Mix
TTITLE2=Real Love Mix
TTITLE3=12" Club Mix
TTITLE4=Unique Power
EXTD=\n\nYEAR: 2000  ID3G:   0
EXTT0=
EXTT1=
EXTT2=
EXTT3=
EXTT4=
PLAYORDER=
